<svg width="30" height="30" viewBox="0 0 30 30" fill="none" xmlns="http://www.w3.org/2000/svg"><path d="M14.224 0.378066L0.0205078 11.8549V13.9938H14.9999H29.9794V11.8549L15.7759 0.378066C15.3233 0.0123242 14.6766 0.0123242 14.224 0.378066Z" fill="#FF9102"/><path d="M27.7552 25.8557H2.73457C2.05277 25.8557 1.5 25.3029 1.5 24.6211V1.23457C1.5 0.552773 2.05271 0 2.73457 0H27.7552C28.437 0 28.9897 0.552773 28.9897 1.23457V24.6212C28.9897 25.303 28.437 25.8557 27.7552 25.8557Z" fill="url(#paint0_linear)"/><path fill-rule="evenodd" clip-rule="evenodd" d="M16.1016 11.5918H16.0609C15.6708 12.7569 14.9067 13.3395 13.7687 13.3395C13.0425 13.3395 12.4573 13.0672 12.0129 12.5226C11.5686 11.9779 11.3464 11.245 11.3464 10.3238C11.3464 9.10451 11.6512 8.09116 12.2609 7.28373C12.8705 6.47629 13.6739 6.07258 14.671 6.07258C15.0503 6.07258 15.389 6.17689 15.687 6.38553C15.9851 6.59416 16.1774 6.84479 16.2641 7.13741H16.2885C16.3048 6.98568 16.3454 6.67409 16.4105 6.20264H17.7598C17.5051 9.06389 17.3778 10.5216 17.3778 10.5758C17.3778 11.6487 17.6568 12.1852 18.215 12.1852C18.7244 12.1852 19.1471 11.8858 19.483 11.287C19.819 10.6882 19.987 9.91195 19.987 8.9582C19.987 7.54925 19.5332 6.39908 18.6255 5.50765C17.7178 4.61622 16.4592 4.17051 14.8498 4.17051C13.3054 4.17051 12.0265 4.70969 11.0131 5.78808C9.99976 6.86647 9.49309 8.21579 9.49309 9.83608C9.49309 11.4347 9.9808 12.7244 10.9562 13.7053C11.9317 14.6861 13.2457 15.1765 14.8986 15.1765C16.1991 15.1765 17.3127 14.9543 18.2394 14.51V15.7618C17.291 16.1628 16.107 16.3633 14.6872 16.3633C12.693 16.3633 11.0863 15.7672 9.867 14.575C8.64772 13.3828 8.03809 11.8222 8.03809 9.89298C8.03809 7.90961 8.68294 6.26496 9.97267 4.95897C11.2624 3.65298 12.9098 3 14.9148 3C16.7952 3 18.3518 3.54731 19.5846 4.64196C20.8175 5.73661 21.4339 7.1645 21.4339 8.92569C21.4339 10.2154 21.0993 11.2735 20.43 12.0999C19.7608 12.9263 18.9439 13.3395 17.9793 13.3395C16.7329 13.3395 16.107 12.7569 16.1016 11.5918ZM14.8091 7.22683C14.213 7.22683 13.7321 7.51945 13.3663 8.10471C13.0005 8.68996 12.8177 9.41881 12.8177 10.2913C12.8177 10.8765 12.9409 11.3385 13.1875 11.6772C13.4341 12.0159 13.7633 12.1852 14.1751 12.1852C14.7712 12.1852 15.2427 11.8777 15.5895 11.2626C15.9363 10.6476 16.1097 9.83338 16.1097 8.82002C16.1097 7.75789 15.6762 7.22683 14.8091 7.22683Z" fill="#BDBDBD"/><path d="M28.7446 23.9333V24.4139C28.7446 25.2098 28.0986 25.8557 27.3028 25.8557H2.69664C1.90076 25.8557 1.25488 25.2098 1.25488 24.4139V23.9333H28.7446Z" fill="url(#paint1_linear)"/><path d="M29.9794 11.8823V28.7654C29.9794 29.4469 29.4263 30 28.7448 30H1.25508C0.573574 30 0.0205078 29.4469 0.0205078 28.7654V11.8823L15.1646 23.8272L29.9794 11.8823Z" fill="url(#paint2_linear)"/><path d="M29.8129 29.3827L15.9394 18.1968C15.4872 17.8322 14.8419 17.8322 14.3896 18.1968L0.304688 29.5532C0.531211 29.8261 0.872754 30 1.25508 30H28.7447C29.2015 30 29.5993 29.7514 29.8129 29.3827Z" fill="url(#paint3_linear)"/><path d="M1.63979 25.0061V1.61941C1.63979 0.937617 2.19256 0.384844 2.87436 0.384844H27.8949C28.1372 0.384844 28.3625 0.455684 28.5532 0.57627C28.3345 0.230391 27.9496 0 27.51 0H2.48945C1.80766 0 1.25488 0.552773 1.25488 1.23457V24.6212C1.25488 25.0607 1.48527 25.4456 1.83121 25.6644C1.71062 25.4736 1.63979 25.2483 1.63979 25.0061Z" fill="url(#paint4_linear)"/><defs><linearGradient id="paint0_linear" x1="-11.028" y1="15.497" x2="15.898" y2="45.935" gradientUnits="userSpaceOnUse"><stop stop-color="#fff"/><stop offset="1" stop-color="#E8EFEE"/></linearGradient><linearGradient id="paint1_linear" x1="12.267" y1="22.697" x2="12.018" y2="26.785" gradientUnits="userSpaceOnUse"><stop stop-color="#C2CECE" stop-opacity=".01"/><stop offset=".179" stop-color="#AFBCBC" stop-opacity=".179"/><stop offset="1" stop-color="#5B6A6A"/></linearGradient><linearGradient id="paint2_linear" x1="5.807" y1="17.644" x2="5.807" y2="28.764" gradientUnits="userSpaceOnUse"><stop stop-color="#FFC200"/><stop offset=".268" stop-color="#FB0"/><stop offset=".659" stop-color="#FFA801"/><stop offset="1" stop-color="#FF9102"/></linearGradient><linearGradient id="paint3_linear" x1="10.346" y1="26.132" x2="10.346" y2="29.989" gradientUnits="userSpaceOnUse"><stop stop-color="#FFC200"/><stop offset=".268" stop-color="#FB0"/><stop offset=".659" stop-color="#FFA801"/><stop offset="1" stop-color="#FF9102"/></linearGradient><linearGradient id="paint4_linear" x1="19.227" y1="-3.955" x2="-.469" y2="-26.238" gradientUnits="userSpaceOnUse"><stop stop-color="#C2CECE" stop-opacity=".01"/><stop offset=".179" stop-color="#AFBCBC" stop-opacity=".179"/><stop offset="1" stop-color="#5B6A6A"/></linearGradient></defs></svg>