<svg width="15" height="11" viewBox="0 0 15 11" fill="none" xmlns="http://www.w3.org/2000/svg"><path fill-rule="evenodd" clip-rule="evenodd" d="M13.6816 0H1.31836C0.592324 0 0 0.569631 0 1.26923V9.73077C0 10.428 0.589688 11 1.31836 11H13.6816C14.4059 11 15 10.4323 15 9.73077V1.26923C15 0.572 14.4103 0 13.6816 0ZM13.4211 0.785714L7.5255 6.28571L1.57895 0.785714H13.4211ZM0.789474 1.57143V9.42857L4.73684 5.48308L0.789474 1.57143ZM1.57895 10.2143L5.75893 6.28571L7.22359 7.65046C7.39314 7.80845 7.66674 7.80793 7.8356 7.64921L9.26371 6.30699L13.4211 10.2143H1.57895ZM10.2632 5.50001L14.2105 9.42857V1.57143L10.2632 5.50001Z" fill="#585858"/></svg>