<svg width="30" height="30" viewBox="0 0 30 30" fill="none" xmlns="http://www.w3.org/2000/svg"><path d="M27.9311 30H2.06895C0.931055 30 0 29.0689 0 27.9311V2.06895C0 0.931055 0.931055 0 2.06895 0H27.9311C29.0689 0 30 0.931055 30 2.06895V27.9311C30 29.0689 29.0689 30 27.9311 30Z" fill="#4D6FA9"/><path d="M25.1611 5.32263V10.4638H20.506C19.937 10.4638 19.4715 10.9265 19.4715 11.492V14.5767H24.6439V19.7178H19.4715V30H14.2991V19.7177H10.1611V14.5766H14.2991V11.4919C14.2991 8.25299 16.7818 5.57964 19.9887 5.32257H25.1611V5.32263Z" fill="#fff"/></svg>