<svg width="42" height="42" viewBox="0 0 42 42" fill="none" xmlns="http://www.w3.org/2000/svg"><path fill-rule="evenodd" clip-rule="evenodd" d="M21 42C32.598 42 42 32.598 42 21C42 9.40202 32.598 0 21 0C9.40202 0 0 9.40202 0 21C0 32.598 9.40202 42 21 42Z" fill="#4F6CC5"/><path d="M18.1614 15.4544C18.1614 16.034 18.1614 18.621 18.1614 18.621H16V22.4932H18.1614V34H22.6015V22.4935H25.581C25.581 22.4935 25.8601 20.6368 25.9953 18.6067C25.6075 18.6067 22.6183 18.6067 22.6183 18.6067C22.6183 18.6067 22.6183 16.354 22.6183 15.9592C22.6183 15.5635 23.1024 15.0312 23.5809 15.0312C24.0585 15.0312 25.0664 15.0312 26 15.0312C26 14.504 26 12.6824 26 11C24.7537 11 23.3358 11 22.7108 11C18.0517 10.9997 18.1614 14.8758 18.1614 15.4544Z" fill="#fff"/></svg>