<svg width="30" height="30" viewBox="0 0 30 30" fill="none" xmlns="http://www.w3.org/2000/svg"><path d="M21.6724 30H8.32758C3.72416 30 0 26.2758 0 21.6724V8.32758C0 3.72416 3.72416 0 8.32758 0H21.6724C26.2758 0 30 3.72416 30 8.32758V21.6724C30 26.2758 26.2758 30 21.6724 30Z" fill="url(#paint0_linear)"/><path d="M22.7584 8.27587C22.7584 7.70692 22.2929 7.24139 21.7239 7.24139C21.155 7.24139 20.6895 7.70692 20.6895 8.27587C20.6895 8.84481 21.155 9.31034 21.7239 9.31034C22.2929 9.3104 22.7584 8.84487 22.7584 8.27587Z" fill="#fff"/><path fill-rule="evenodd" clip-rule="evenodd" d="M8.27539 15C8.27539 11.2758 11.2754 8.27582 14.9996 8.27582C18.7237 8.27582 21.7237 11.2758 21.7237 15C21.7237 18.7241 18.7237 21.7241 14.9996 21.7241C11.2754 21.7241 8.27539 18.7241 8.27539 15ZM10.3444 15C10.3444 17.4827 12.5168 19.6551 14.9996 19.6551C17.4823 19.6551 19.6547 17.4827 19.6547 15C19.6547 12.5172 17.4823 10.3448 14.9996 10.3448C12.5168 10.3448 10.3444 12.5172 10.3444 15Z" fill="#fff"/><path fill-rule="evenodd" clip-rule="evenodd" d="M8.27594 3.10345H21.7243C24.569 3.10345 26.8966 5.43103 26.8966 8.27582V21.7241C26.8966 24.569 24.569 26.8966 21.7242 26.8966H8.27594C5.43109 26.8966 3.10352 24.569 3.10352 21.7241V8.27588C3.10352 5.43103 5.43109 3.10345 8.27594 3.10345ZM21.9312 24.8276C23.5346 24.8276 24.8277 23.5345 24.8277 21.931V8.06892C24.8277 6.46551 23.5346 5.1724 21.9312 5.1724H8.06904C6.46562 5.1724 5.17252 6.46545 5.17252 8.06892V21.931C5.17252 23.5345 6.46557 24.8276 8.06904 24.8276H21.9312Z" fill="#fff"/><defs><linearGradient id="paint0_linear" x1="41.147" y1="14.96" x2="15.909" y2="-11.255" gradientUnits="userSpaceOnUse"><stop stop-color="#DA8E3A"/><stop offset="1" stop-color="#D520D0"/></linearGradient></defs></svg>