<svg width="288" height="288" viewBox="0 0 42 42" fill="none" xmlns="http://www.w3.org/2000/svg"><path fill-rule="evenodd" clip-rule="evenodd" d="M21 42C32.598 42 42 32.598 42 21C42 9.40202 32.598 0 21 0C9.40202 0 0 9.40202 0 21C0 32.598 9.40202 42 21 42Z" fill="url(#paint0_linear)"/><path fill-rule="evenodd" clip-rule="evenodd" d="M17.1875 10H25.8125C29.7814 10 33 13.2186 33 17.1875V25.8125C33 29.7814 29.7814 33 25.8125 33H17.1875C13.2186 33 10 29.7814 10 25.8125V17.1875C10 13.2186 13.2186 10 17.1875 10ZM25.8125 30.8438C28.5869 30.8438 30.8438 28.5869 30.8438 25.8125V17.1875C30.8438 14.4131 28.5869 12.1562 25.8125 12.1562H17.1875C14.4131 12.1562 12.1562 14.4131 12.1562 17.1875V25.8125C12.1562 28.5869 14.4131 30.8438 17.1875 30.8438H25.8125Z" fill="#fff"/><path fill-rule="evenodd" clip-rule="evenodd" d="M15.5945 21.5C15.5945 18.2387 18.2386 15.5946 21.4999 15.5946C24.7611 15.5946 27.4053 18.2387 27.4053 21.5C27.4053 24.7613 24.7611 27.4054 21.4999 27.4054C18.2386 27.4054 15.5945 24.7613 15.5945 21.5ZM17.809 21.5C17.809 23.5344 19.4655 25.1909 21.4999 25.1909C23.5343 25.1909 25.1908 23.5344 25.1908 21.5C25.1908 19.4641 23.5343 17.8091 21.4999 17.8091C19.4655 17.8091 17.809 19.4641 17.809 21.5Z" fill="#fff"/><path d="M27.4053 15.5946C27.7486 15.5946 28.0269 15.3163 28.0269 14.973C28.0269 14.6297 27.7486 14.3513 27.4053 14.3513C27.062 14.3513 26.7837 14.6297 26.7837 14.973C26.7837 15.3163 27.062 15.5946 27.4053 15.5946Z" fill="#fff"/><defs><linearGradient id="paint0_linear" x1="17.884" y1="-8.531" x2="-5.6" y2="27.592" gradientUnits="userSpaceOnUse"><stop stop-color="#970BA9"/><stop offset="1" stop-color="#FB0"/></linearGradient></defs></svg>