<svg width="40" height="40" viewBox="0 0 40 40" fill="none" xmlns="http://www.w3.org/2000/svg"><path d="M0 40L2.75859 30C0.965547 26.8966 0 23.4483 0 19.862C0 8.96555 8.96555 0 19.931 0C30.8965 0 40 8.96555 40 19.862C40 30.7585 30.8966 40 19.931 40C16.4827 40 13.1724 38.8966 10.2069 37.2414L0 40Z" fill="#E0E0E0"/><path d="M11.0651 33.9766L11.6862 34.3216C14.2396 35.9088 17.207 36.875 20.3125 36.875C29.3528 36.875 36.875 29.3528 36.875 20.1744C36.875 10.996 29.3528 3.75 20.2435 3.75C11.1341 3.75 3.75 11.0651 3.75 20.1744C3.75 23.3489 4.64715 26.4544 6.30338 29.0768L6.71748 29.6979L5.13027 35.4948L11.0651 33.9766Z" fill="#55CD6C"/><path d="M14.4363 10.6935L13.1409 10.625C12.7317 10.625 12.3226 10.7619 12.0499 11.0357C11.4362 11.5833 10.4135 12.61 10.1407 13.9791C9.66347 16.0325 10.4135 18.4967 12.1863 20.9608C13.9591 23.425 17.3684 27.395 23.3686 29.1062C25.2778 29.6538 26.7779 29.3115 28.0053 28.5586C28.9599 27.9426 29.5735 26.9843 29.7781 25.9576L29.9826 24.9992C30.0508 24.7255 29.9144 24.3832 29.6417 24.2463L25.346 22.2613C25.0733 22.1244 24.7323 22.1929 24.5278 22.4666L22.8232 24.657C22.6868 24.7939 22.4822 24.8623 22.2777 24.7939C21.1185 24.3832 17.232 22.7404 15.1182 18.6335C15.05 18.4282 15.05 18.2228 15.1864 18.086L16.8229 16.2379C16.9593 16.0325 17.0274 15.7588 16.9593 15.5534L14.9819 11.1042C14.9136 10.8988 14.7091 10.6935 14.4363 10.6935Z" fill="#FEFEFE"/></svg>