<svg xmlns="http://www.w3.org/2000/svg" width="33" height="28" viewBox="0 0 33 28"><defs><linearGradient id="m4fva" x1="33" x2="3.49" y1="28" y2="0" gradientUnits="userSpaceOnUse"><stop offset="0" stop-color="#ab1d1c"/><stop offset="1" stop-color="#6b9812"/></linearGradient></defs><path fill="url(#m4fva)" d="M5.104 8.185l-2.99-2.96v1.319H0v3.28h2.114v1.32zm12.259 9.726a1.31 1.31 0 0 0-1.316-1.304c-.728 0-1.318.584-1.318 1.304 0 .719.59 1.304 1.318 1.304.727 0 1.315-.585 1.316-1.304zm13.087-5.093v-2.525c0-.34-.28-.617-.624-.617a.62.62 0 0 0-.624.617v2.525H27.46v-2.525a.62.62 0 0 0-.624-.617.622.622 0 0 0-.624.617v2.525H24.47v-2.525a.622.622 0 0 0-.624-.617.62.62 0 0 0-.624.617v2.525h-1.744v-2.525a.62.62 0 0 0-.623-.617.622.622 0 0 0-.624.617v2.525h-1.74v-2.525a.622.622 0 0 0-.623-.617.62.62 0 0 0-.624.617v2.525H15.5v-2.525c0-.34-.28-.617-.623-.617a.622.622 0 0 0-.625.617v2.525h-1.528V6.14h19.027v6.68zm1.927-7.913H25.4c1.058-2.368 2.396-3.856 2.41-3.872a.613.613 0 0 0-.04-.872.628.628 0 0 0-.88.04c-.07.075-1.682 1.844-2.85 4.704H12.103a.621.621 0 0 0-.624.618v7.914c0 .34.28.618.624.618h11.2a15.889 15.889 0 0 0 2.118 4.798c.22.337.479.747.747 1.186-3.031 1.209-6.445 1.86-9.916 1.86h-.004c-3.602 0-7.123-.7-10.238-1.996.236-.385.468-.746.663-1.05C13.107 8.963 5.285.287 5.204.201a.63.63 0 0 0-.88-.041.614.614 0 0 0-.042.873c.298.325 7.25 8.072 1.342 17.152-1.21 1.858-3.46 5.318-3.082 9.257a.62.62 0 0 0 .62.558c.02 0 .04 0 .06-.003a.617.617 0 0 0 .562-.673c-.227-2.366.652-4.591 1.595-6.328 3.3 1.394 7.046 2.136 10.867 2.136h.004c3.69 0 7.322-.698 10.537-2.003.913 1.717 1.743 3.888 1.521 6.194a.62.62 0 0 0 .56.673.617.617 0 0 0 .68-.556c.382-3.938-1.871-7.398-3.08-9.257a14.8 14.8 0 0 1-1.88-4.13h7.788a.622.622 0 0 0 .624-.618V5.52a.617.617 0 0 0-.623-.615z"/></svg>