<svg xmlns="http://www.w3.org/2000/svg" width="23" height="32" viewBox="0 0 23 32"><defs><linearGradient id="5bnxa" x1="0" x2="23" y1="32" y2="0" gradientUnits="userSpaceOnUse"><stop offset="0" stop-color="#ab1d1c"/><stop offset="1" stop-color="#6b9812"/></linearGradient><linearGradient id="5bnxb" x1="6" x2="15" y1="24" y2="21" gradientUnits="userSpaceOnUse"><stop offset="0" stop-color="#ab1d1c"/><stop offset="1" stop-color="#6b9812"/></linearGradient><linearGradient id="5bnxc" x1="16" x2="18" y1="19" y2="9" gradientUnits="userSpaceOnUse"><stop offset="0" stop-color="#ab1d1c"/><stop offset="1" stop-color="#6b9812"/></linearGradient></defs><path fill="url(#5bnxa)" d="M21.827 24.015c-.607 1.702-3.03 1.157-3.13 1.134a.513.513 0 0 0-.576.261c-1.765 3.425-7.153 2.997-7.207 2.992a.51.51 0 0 0-.165.012c-.806-.088-1.685-.324-2.407-.858a.515.515 0 0 0-.715.1.499.499 0 0 0 .102.706c.601.445 1.277.72 1.945.885a8.345 8.345 0 0 1-2.13 1.081c-3.148-3.35-4.303-8.833-4.659-11.082.848-.163 1.949-.218 2.886.244a.518.518 0 0 0 .542-.052c.01-.008 1.073-.81 2.634-1.201 1.551-.388 3.025-.249 4.399.41.019.011.038.02.058.03.42.205.83.46 1.23.764a.513.513 0 0 0 .716-.092.499.499 0 0 0-.093-.706 8.528 8.528 0 0 0-1.223-.778c-.888-3.435.306-9.951.318-10.018a.498.498 0 0 0-.01-.225c-.027-.098-.288-.97-.973-1.285-.236-.109-.618-.193-1.09.02l-.28.13c-.901.425-1.922.906-3.35.092-.993-.565-1.108-.962-1.085-1.05a.498.498 0 0 0-.178-.713.785.785 0 0 1-.318-.55c-.049-.386.104-1.255 1.677-2.727 1.583-1.483 5.526.547 6.912 1.454a.513.513 0 0 0 .09.047c.8.322.94 1.1.945 1.128a.5.5 0 0 0 .07.19c.05.082 4.872 7.939 4.769 16.016a2.754 2.754 0 0 0-.07-.05.515.515 0 0 0-.71.133.5.5 0 0 0 .135.7c.015.01 1.574 1.083.941 2.858zm.682-2.556c.3-4.548-1.022-9.067-2.194-12.072-1.165-2.987-2.38-5.057-2.636-5.48-.08-.333-.401-1.314-1.499-1.78A17.594 17.594 0 0 0 13.186.621C10.852-.265 9.12-.203 8.042.808c-1.448 1.355-2.116 2.56-1.988 3.583.062.491.291.827.494 1.035-.012.105-.01.224.017.357.114.577.643 1.139 1.573 1.669 1.893 1.079 3.342.396 4.3-.056l.266-.123c.143-.064.206-.035.233-.023.159.072.31.337.388.542-.161.905-1.032 6.115-.435 9.59-1.626-.532-3.123-.395-4.234-.111a9.19 9.19 0 0 0-2.713 1.191c-.904-.363-1.995-.436-3.193-.216l-.001-.01a.508.508 0 0 0-.509-.458H.51a.507.507 0 0 0-.51.504V29.66c0 .278.229.503.51.503.283 0 .511-.225.511-.503V18.785h.764c.105.805.383 2.584 1.006 4.67.96 3.213 2.297 5.741 3.983 7.538H.511a.507.507 0 0 0-.511.503c0 .279.229.504.51.504h7.526a.51.51 0 0 0 .478-.328.499.499 0 0 0-.145-.557l-.015-.013c1.032-.414 1.929-.968 2.675-1.653.2.013.392.018.575.018.885 0 1.55-.124 1.689-.151.258-.035.527-.08.802-.136 2.2-.45 3.833-1.476 4.749-2.979 1.258.185 3.288-.008 3.946-1.852a3.298 3.298 0 0 0-.281-2.89z"/><path fill="url(#5bnxb)" d="M14.144 21.144c-2.742 2.68-7.482 1.661-7.53 1.65a.498.498 0 1 0-.222.972c.092.022 1.07.234 2.407.234 1.8 0 4.25-.386 6.051-2.147a.495.495 0 0 0 .005-.705.506.506 0 0 0-.711-.004z"/><path fill="url(#5bnxc)" d="M16.32 9.038a.535.535 0 0 0-.284.686c.015.04 1.512 4.02.7 8.653a.527.527 0 0 0 .502.623.515.515 0 0 0 .5-.434c.866-4.942-.69-9.061-.756-9.234a.503.503 0 0 0-.661-.294z"/></svg>