<svg xmlns="http://www.w3.org/2000/svg" width="32" height="32" viewBox="0 0 32 32"><defs><linearGradient id="hztma" x1="34.01" x2="4.24" y1="32" y2="2.23" gradientUnits="userSpaceOnUse"><stop offset="0" stop-color="#ab1d1c"/><stop offset="1" stop-color="#6b9812"/></linearGradient></defs><path fill="url(#hztma)" d="M23.823 30.017a.73.73 0 0 1-1.458 0v-4c.487-.03.974-.08 1.458-.146zM21.252 3.566v-.323c0-1.099.894-1.993 1.993-1.993 1.099 0 1.993.894 1.993 1.993v.323a1.996 1.996 0 0 1-1.993 1.993c-1.1 0-1.993-.894-1.993-1.993zM8.312 25.559c-3.684 0-6.718-2.834-7.035-6.437H3.1a5.213 5.213 0 0 0 2.467 3.85.622.622 0 0 0 .86-.205.625.625 0 0 0-.205-.859 3.975 3.975 0 0 1-1.86-2.786h10.984c-.317 3.603-3.35 6.437-7.034 6.437zm-.625-14.096v6.41h-6.41a7.074 7.074 0 0 1 6.41-6.41zm5.749 18.179a1.105 1.105 0 0 1-2.208 0 1.105 1.105 0 0 1 2.208 0zM4.29 30.746a1.105 1.105 0 1 1 1.104-1.104c0 .608-.495 1.104-1.104 1.104zm22.438-16.299V9.043c0-1.2-.61-2.26-1.535-2.887a3.24 3.24 0 0 0 1.294-2.59v-.323A3.247 3.247 0 0 0 23.245 0a3.247 3.247 0 0 0-3.243 3.243v.323a3.24 3.24 0 0 0 1.294 2.59 3.483 3.483 0 0 0-1.535 2.887v2.688l-3.825 1.385a1.877 1.877 0 0 0-1.13 2.388h-.37a.625.625 0 0 0-.592.423l-.666 1.946H8.936V10.81a.625.625 0 0 0-.625-.625C3.73 10.186 0 13.915 0 18.498c0 3.943 2.76 7.253 6.45 8.1l-.997.998a2.337 2.337 0 0 0-1.162-.308 2.356 2.356 0 0 0-2.354 2.354 2.356 2.356 0 0 0 2.354 2.354 2.356 2.356 0 0 0 2.354-2.354 2.34 2.34 0 0 0-.308-1.162l1.677-1.677a8.602 8.602 0 0 0 .595 0l1.677 1.677c-.196.343-.308.74-.308 1.162a2.356 2.356 0 0 0 2.354 2.354 2.357 2.357 0 0 0 2.354-2.354 2.356 2.356 0 0 0-2.354-2.354c-.423 0-.82.112-1.162.308l-.998-.997c3.69-.848 6.45-4.158 6.45-8.101a.625.625 0 0 0-.624-.625H14.5l.382-1.12h1.702c.02 0 .04 0 .06-.002.194-.007.385-.043.568-.11l5.062-1.832a1.88 1.88 0 0 0 1.237-1.763V9.814a.625.625 0 1 0-1.25 0v3.232a.626.626 0 0 1-.412.587l-5.062 1.833a.627.627 0 0 1-.8-.375.626.626 0 0 1 .374-.8l4.238-1.534a.625.625 0 0 0 .412-.588v-1.353-1.773a2.237 2.237 0 0 1 2.234-2.234 2.237 2.237 0 0 1 2.234 2.234v5.611c0 .135.043.265.124.373l5.091 6.845a.28.28 0 0 1 .05.23.28.28 0 0 1-.142.189l-.341.184a19.43 19.43 0 0 1-9.222 2.337h-.028v-4.999a.625.625 0 0 0-1.25 0v5.624c0 .344.28.625.625.625h.653l.076-.001v3.956c0 1.09.888 1.979 1.979 1.979a1.981 1.981 0 0 0 1.979-1.98V25.66a20.666 20.666 0 0 0 5.783-2.086l.341-.184a1.533 1.533 0 0 0 .5-2.264z"/></svg>