<svg xmlns="http://www.w3.org/2000/svg" width="32" height="32" viewBox="0 0 32 32"><defs><linearGradient id="inwla" x1="28.96" x2="6.06" y1="31.09" y2="4.57" gradientUnits="userSpaceOnUse"><stop offset="0" stop-color="#ab1d1c"/><stop offset="1" stop-color="#6b9812"/></linearGradient></defs><path fill="url(#inwla)" d="M26.839 26.318a4.136 4.136 0 0 1-4.13-4.133 4.136 4.136 0 0 1 4.13-4.133 4.136 4.136 0 0 1 4.129 4.133 4.136 4.136 0 0 1-4.13 4.133zm0-10.907l1.075 1.723a5.163 5.163 0 0 0-1.075-.115c-.37 0-.729.04-1.076.115zm.516-8.207h3.105a.52.52 0 0 1 .518.521.52.52 0 0 1-.518.522h-3.105zM15.484 28.9v-1.033h1.042V28.9zm8.16 2.077H8.346a1.552 1.552 0 0 1 1.46-1.043h12.379c.672 0 1.246.436 1.459 1.043zM16 3.07a2.585 2.585 0 0 1 2.58 2.583c0 1.09-.691 2.068-1.72 2.433l-.344.121V9.27h-1.032V8.208l-.344-.121a2.587 2.587 0 0 1-1.72-2.433A2.585 2.585 0 0 1 16 3.071zm.526 8.276h-1.042v-1.044h1.042zm0 15.487h-1.042V12.37h1.042zM1.55 8.247a.52.52 0 0 1-.518-.522.52.52 0 0 1 .518-.521h3.105v1.043zM9.29 20.61c0 .545-.212 1.058-.597 1.443l-3.532 3.535-3.532-3.535a2.042 2.042 0 0 1 1.442-3.483c.544 0 1.056.212 1.442.597l.648.65.65-.65a2.023 2.023 0 0 1 1.44-.597c1.125 0 2.04.915 2.04 2.04zm-4.129-5.284l1.61 2.256c-.6.094-1.159.356-1.61.777a3.038 3.038 0 0 0-1.61-.777zm24.383 2.469l-2.19-3.506V9.27h3.098a1.551 1.551 0 0 0 0-3.1h-8.798c.016-.171.023-.344.023-.516A5.658 5.658 0 0 0 16.567 0l-.101 1.028a4.629 4.629 0 0 1 4.18 4.626c0 .312-.032.625-.094.93l-.125.62h5.896v1.033h-7.81a3.61 3.61 0 0 0 1.1-2.583A3.619 3.619 0 0 0 16 2.038a3.619 3.619 0 0 0-3.613 3.616c0 .994.416 1.916 1.1 2.583h-7.81V7.204h5.896l-.125-.62a4.745 4.745 0 0 1-.093-.93c0-2.4 1.796-4.39 4.18-4.626L15.433 0a5.658 5.658 0 0 0-5.087 6.17H1.548a1.551 1.551 0 0 0 0 3.1h3.097v5L2.23 17.655A3.078 3.078 0 0 0 0 20.61c0 .821.32 1.593.9 2.174l4.261 4.265 4.262-4.265c.58-.581.9-1.353.9-2.174a3.077 3.077 0 0 0-2.23-2.953L5.677 14.27v-5h8.775V28.9H9.806a2.585 2.585 0 0 0-2.58 2.583V32h17.548v-.517a2.585 2.585 0 0 0-2.58-2.583h-4.646V9.27h8.775v5.018l-2.19 3.506a5.163 5.163 0 0 0-2.456 4.39 5.17 5.17 0 0 0 5.162 5.167A5.17 5.17 0 0 0 32 22.185c0-1.855-.985-3.48-2.456-4.391z"/></svg>