<svg width="54" height="54" viewBox="0 0 54 54" fill="none" xmlns="http://www.w3.org/2000/svg"><path opacity=".678" fill-rule="evenodd" clip-rule="evenodd" d="M27 54C41.9117 54 54 41.9117 54 27C54 12.0883 41.9117 0 27 0C12.0883 0 0 12.0883 0 27C0 41.9117 12.0883 54 27 54Z" fill="#1E1E1E"/><path d="M31.4711 20.4169C31.1783 20.1139 30.6911 20.1139 30.3881 20.4169C30.0953 20.7097 30.0953 21.197 30.3881 21.4891L35.8797 26.9806H17.7582C17.3358 26.9813 17 27.3171 17 27.7395C17 28.1619 17.3358 28.5086 17.7582 28.5086H35.8797L30.3881 33.99C30.0953 34.293 30.0953 34.7809 30.3881 35.073C30.6911 35.376 31.179 35.376 31.4711 35.073L38.2627 28.2814C38.5658 27.9886 38.5658 27.5013 38.2627 27.2093L31.4711 20.4169Z" fill="#fff"/></svg>