<svg xmlns="http://www.w3.org/2000/svg" width="57.6" height="57.6" viewBox="0 0 54 54" id="svg2" version="1.1"><g id="layer1" transform="translate(-344.75 -426.701)"><g id="g4148" transform="rotate(180 199.375 240.35)" fill="none"><path id="path4138" d="M 27,54 C 41.9117,54 54,41.9117 54,27 54,12.0883 41.9117,0 27,0 12.0883,0 0,12.0883 0,27 0,41.9117 12.0883,54 27,54 Z" clip-rule="evenodd" opacity=".678" fill="#1e1e1e" fill-rule="evenodd"/><path id="path4140" d="m 31.4711,20.4169 c -0.2928,-0.303 -0.78,-0.303 -1.083,0 -0.2928,0.2928 -0.2928,0.7801 0,1.0722 l 5.4916,5.4915 -18.1215,0 C 17.3358,26.9813 17,27.3171 17,27.7395 c 0,0.4224 0.3358,0.7691 0.7582,0.7691 l 18.1215,0 -5.4916,5.4814 c -0.2928,0.303 -0.2928,0.7909 0,1.083 0.303,0.303 0.7909,0.303 1.083,0 l 6.7916,-6.7916 c 0.3031,-0.2928 0.3031,-0.7801 0,-1.0721 l -6.7916,-6.7924 z" fill="#fff"/></g></g></svg>