<svg width="22" height="21" viewBox="0 0 22 21" fill="none" xmlns="http://www.w3.org/2000/svg"><path fill-rule="evenodd" clip-rule="evenodd" d="M21.2752 0.0656945C21.4236 -0.020558 21.6078 -0.0219735 21.7577 0.0620142C21.9075 0.145955 22 0.302417 22 0.471855V19.0152C22 19.1648 21.9278 19.3055 21.8053 19.3945C21.7216 19.4553 21.6212 19.487 21.5196 19.487C21.4725 19.487 21.4252 19.4802 21.3791 19.4664L14.7116 17.4627L11.1669 20.8656C11.0754 20.9535 10.9542 21 10.8311 21C10.7682 21 10.705 20.9879 10.6448 20.963C10.5486 20.9233 10.4715 20.8544 10.4201 20.7702C10.4167 20.7659 10.4134 20.7611 10.4101 20.7554L7.32741 15.2436L0.339824 13.1438C0.157868 13.0891 0.0259159 12.934 0.00338752 12.7484C-0.0191408 12.5627 0.0720774 12.3815 0.235876 12.2864L8.80909 7.30661C9.03745 7.17393 9.33205 7.24834 9.46703 7.47261C9.60205 7.69692 9.5264 7.98625 9.29804 8.11893L1.66218 12.5542L7.51321 14.3126L19.2772 2.32251L12.9615 5.99102C12.7331 6.12361 12.4386 6.0493 12.3036 5.82503C12.1686 5.60072 12.2442 5.31139 12.4726 5.17875L21.2752 0.0656945ZM10.3509 15.8031C10.3509 15.7071 10.3807 15.6134 10.4363 15.5344L17.5608 5.43185L8.24584 14.9258L10.3509 18.6894V15.8031ZM11.3116 19.4073V16.4409L13.6648 17.1481L11.3116 19.4073ZM11.6005 15.5409L21.0393 18.3774V2.15652L11.6005 15.5409Z" fill="#fff"/></svg>