<svg width="20" height="18" viewBox="0 0 20 18" fill="none" xmlns="http://www.w3.org/2000/svg"><path fill-rule="evenodd" clip-rule="evenodd" d="M16.6274 1.16348C17.2175 0.597626 18.2241 -0.357246 19.1266 0.137873C21.1677 1.2552 19.1448 3.68018 17.9857 5.06973C17.8241 5.26345 17.6793 5.43705 17.5646 5.58418C16.5694 6.88107 15.5434 8.14655 14.5173 9.41202C14.0045 10.0445 13.4916 10.677 12.9827 11.3135C12.517 11.8856 12.0729 12.4799 11.6269 13.0766C10.9428 13.9919 10.2543 14.9131 9.47679 15.7695C9.43703 15.8139 9.39572 15.8603 9.35295 15.9083C8.61162 16.7404 7.43196 18.0644 6.28333 17.9976C5.27669 17.9622 4.4089 17.2195 3.74938 16.5122C2.18736 14.8501 0.069957 12.233 0.000533834 9.79274C-0.0341777 7.91836 1.63198 8.48421 2.63861 9.26226C3.56343 9.99246 4.34965 10.8325 5.14088 11.6779C5.53755 12.1018 5.93547 12.5269 6.35275 12.9403C6.90813 11.8793 7.81063 10.9598 8.64371 10.111L8.64371 10.111C9.54828 9.16744 10.3994 8.21025 11.2551 7.2479C11.7785 6.65925 12.3037 6.06866 12.8438 5.47808C13.3577 4.91211 13.8493 4.32349 14.3409 3.73487C15.0781 2.85228 15.8153 1.96969 16.6274 1.16348ZM1.38894 9.68659C1.45836 9.65128 1.49307 9.65128 1.52779 9.65128C1.28481 9.50976 1.11125 9.47439 1.00711 9.54512C1.14596 9.61586 1.25009 9.65128 1.38894 9.68659Z" fill="#8DB73C"/></svg>