<svg width="26" height="25" viewBox="0 0 26 25" fill="none" xmlns="http://www.w3.org/2000/svg"><path fill-rule="evenodd" clip-rule="evenodd" d="M16.7055 16.858V17.3103C18.5888 17.6742 26.1073 19.4395 25.9795 24.4551C25.9795 24.7267 25.7593 24.9468 25.4878 24.9468H0.493337C0.221781 24.9468 0.00161109 24.7267 0.00161109 24.4551C-0.126238 19.4395 7.39225 17.6742 9.27556 17.3103V16.858C9.14691 16.753 9.02386 16.6414 8.90676 16.5236C7.95946 15.4823 7.36262 14.1701 7.20048 12.7717C6.3493 12.6376 5.58387 12.1773 5.06639 11.4883C4.35338 10.4803 4.28946 9.03952 4.88445 7.2103C4.91942 7.10538 4.98869 7.01527 5.08114 6.9546L5.35159 6.77266C5.3117 5.13103 5.87902 3.53243 6.94478 2.2832C8.26752 0.812945 10.3033 0.0507698 12.9881 0.0507698C15.6778 0.0606043 17.7087 0.812945 19.0314 2.30287C20.0972 3.5521 20.6645 5.1507 20.6246 6.79233L20.895 6.97427C20.9875 7.03493 21.0568 7.12504 21.0917 7.22997C21.6867 9.04935 21.6228 10.4999 20.9098 11.508C20.3903 12.1922 19.6249 12.6472 18.7757 12.7766C18.6142 14.1728 18.0192 15.4832 17.0743 16.5236C16.9563 16.6416 16.8334 16.7547 16.7055 16.858ZM5.86298 10.913C6.12341 11.2686 6.4876 11.5348 6.90544 11.6752C6.3118 11.0006 6.02193 10.1114 6.10393 9.21654C6.19975 8.67859 6.48385 8.19227 6.90544 7.84462C7.13163 2.91753 10.5737 2.37663 12.0489 2.37663C12.3632 2.37571 12.6773 2.3987 12.9881 2.44547C13.299 2.39876 13.6129 2.37571 13.9273 2.37663C15.4123 2.37663 18.8593 2.92737 19.0707 7.84462C19.4896 8.1951 19.7703 8.68308 19.8624 9.22146C19.9439 10.1163 19.654 11.0052 19.0609 11.6801C19.4803 11.5401 19.8461 11.2739 20.1083 10.9179C20.6148 10.2 20.6443 9.10836 20.2066 7.67744L19.8477 7.43649C19.6966 7.33569 19.6135 7.15989 19.6313 6.97919C19.714 5.50954 19.236 4.06319 18.2938 2.93228C17.1628 1.67346 15.3779 1.02439 12.9881 1.03422C10.5983 1.04406 8.81334 1.67346 7.70204 2.93228C6.75983 4.06319 6.28181 5.50954 6.36454 6.97919C6.38237 7.15989 6.2992 7.33569 6.14818 7.43649L5.78922 7.67744C5.35159 9.11328 5.39584 10.2 5.88757 10.9179L5.86298 10.913ZM18.0922 7.64302C16.0289 7.76226 13.9784 7.24748 12.2161 6.16784C12.0166 6.02776 11.7446 6.05499 11.5768 6.23176C10.5934 7.28897 8.79858 7.53484 7.93315 7.58893C8.19868 4.11242 10.3033 3.35517 12.0735 3.35517C12.3552 3.35314 12.6366 3.37619 12.9143 3.42401C12.9792 3.43729 13.0461 3.43729 13.111 3.42401C13.3887 3.37631 13.6701 3.35326 13.9519 3.35517C15.7073 3.35517 17.8218 4.13209 18.0676 7.6381L18.0922 7.64302ZM8.12492 11.7735L8.10525 11.7686L8.10524 11.7702C8.1047 11.8456 8.0871 14.3172 9.62468 15.8499C10.4966 16.6851 11.674 17.1243 12.8799 17.0645H13.1258C14.3342 17.1256 15.5142 16.6843 16.3859 15.845C17.0542 15.1163 17.51 14.2183 17.7037 13.2487L15.4467 14.4583C15.4489 14.5026 15.4489 14.5468 15.4467 14.5911C15.4469 14.9535 15.3081 15.3022 15.0589 15.5654C14.5212 16.1333 13.6249 16.1579 13.0569 15.6202C12.489 15.0825 12.4645 14.1861 13.0022 13.6182C13.5399 13.0502 14.4362 13.0257 15.0042 13.5634L17.866 12.0292V11.7735C17.865 11.6523 17.9087 11.535 17.9889 11.4441C18.6626 10.672 18.9724 9.95904 18.8888 9.38864C18.8447 9.0748 18.6873 8.788 18.4462 8.58221C18.0971 8.6363 17.7628 8.6363 17.4333 8.6363H17.4333C15.517 8.6245 13.6365 8.11624 11.9751 7.16112C10.5 8.43469 8.19868 8.55763 7.5496 8.55763C7.30183 8.76901 7.14221 9.06546 7.10213 9.38864C7.01854 9.96888 7.32832 10.672 8.00199 11.4441C8.0822 11.535 8.12597 11.6523 8.12492 11.7735ZM14.4633 14.5911C14.4633 14.8328 14.2673 15.0287 14.0256 15.0287C13.7839 15.0287 13.588 14.8328 13.588 14.5911C13.588 14.3494 13.7839 14.1535 14.0256 14.1535C14.2673 14.1535 14.4633 14.3494 14.4633 14.5911ZM0.999814 23.9339H12.4964V21.2884C10.6278 21.1458 9.27064 20.2951 9.27064 19.1789V18.2987C7.39225 18.697 1.38828 20.241 0.999814 23.9339ZM10.2541 19.1789V19.1642V17.4824C11.0715 17.8615 11.9643 18.0498 12.8652 18.0332H13.111C14.0119 18.0498 14.9047 17.8615 15.7221 17.4824V19.1789C15.7221 19.646 14.655 20.3197 12.9881 20.3197C11.3211 20.3197 10.2541 19.646 10.2541 19.1789ZM13.4798 21.2835V23.9486H24.9764C24.5731 20.2509 18.5987 18.7068 16.7055 18.3135V19.174C16.7055 20.3 15.3484 21.1556 13.4798 21.2835Z" fill="#628E0D"/></svg>