<svg width="20" height="22" viewBox="0 0 20 22" fill="none" xmlns="http://www.w3.org/2000/svg"><path d="M12.5 4C12.224 4 12 4.224 12 4.5C12 4.776 12.224 5 12.5 5C12.776 5 13 4.776 13 4.5C13 4.224 12.776 4 12.5 4Z" fill="#000"/><path d="M7.5 4C7.224 4 7 4.224 7 4.5C7 4.776 7.224 5 7.5 5C7.776 5 8 4.776 8 4.5C8 4.224 7.776 4 7.5 4Z" fill="#000"/><path fill-rule="evenodd" clip-rule="evenodd" d="M19.4401 12.8426C19.8133 12.2891 20 11.5984 20 11C20 10.0978 19.5945 9.25964 18.8986 8.69125C19.0526 8.32756 19.1304 7.9493 19.1304 7.5625C19.1304 6.36561 18.4237 5.25065 17.3728 4.73C17.5323 3.42315 16.6706 2.22527 15.3937 1.91971C14.8939 0.777906 13.7815 0 12.6087 0C11.517 0 10.5378 0.62932 10 1.54756C9.46217 0.62932 8.483 0 7.3913 0C6.21839 0 5.106 0.777906 4.6063 1.91976C3.32174 2.22724 2.46817 3.4311 2.62717 4.73C1.57639 5.25061 0.869565 6.36561 0.869565 7.5625C0.869565 7.9493 0.947391 8.32756 1.10139 8.69125C0.405522 9.25968 0 10.0978 0 11C0 11.6016 0.188261 12.2913 0.55987 12.8425C0.196739 13.3491 0 13.9495 0 14.5664C0 15.3663 0.328174 16.1283 0.908652 16.6941C0.610217 18.477 2.04891 20.2812 3.91304 20.2812C3.92652 20.2812 3.93978 20.281 3.95278 20.2806C4.57083 21.3343 5.71804 22 6.95652 22C8.2473 22 9.4007 21.2343 10 20.1311C10.5993 21.2343 11.7527 22 13.0435 22C14.282 22 15.4292 21.3343 16.0472 20.2806C16.0603 20.281 16.0735 20.2812 16.087 20.2812C17.7367 20.2812 19.1304 18.8448 19.1304 17.1445C19.1304 16.9998 19.1176 16.8509 19.0913 16.6941C19.6718 16.1283 20 15.3664 20 14.5664C20 13.9495 19.8033 13.3491 19.4401 12.8426ZM9.56522 6.50465C9.30922 6.35791 9.0123 6.27344 8.69565 6.27344C8.45552 6.27344 8.26087 6.46581 8.26087 6.70312C8.26087 6.94044 8.45552 7.13281 8.69565 7.13281C9.17513 7.13281 9.56522 7.51833 9.56522 7.99219V16.1635C8.92735 15.4485 7.99465 14.9961 6.95652 14.9961C6.71639 14.9961 6.52174 15.1885 6.52174 15.4258C6.52174 15.6631 6.71639 15.8555 6.95652 15.8555C8.39496 15.8555 9.56522 17.012 9.56522 18.4336C9.56522 19.9009 8.37057 21.1406 6.95652 21.1406C5.94991 21.1406 5.02326 20.5523 4.5957 19.6419C4.51687 19.4741 4.33835 19.3751 4.15222 19.3958C4.12148 19.3993 4.09091 19.4034 4.06035 19.4075C2.82296 19.5747 1.42948 18.19 1.8067 16.6409C1.84543 16.4817 1.78935 16.3148 1.66209 16.2101C1.15843 15.7959 0.869565 15.1968 0.869565 14.5664C0.869565 14.1766 0.981087 13.7952 1.18861 13.4607C1.71009 13.8831 2.35874 14.1367 3.04348 14.1367C3.28361 14.1367 3.47826 13.9443 3.47826 13.707C3.47826 13.4697 3.28361 13.2773 3.04348 13.2773C1.86352 13.2773 0.869565 12.213 0.869565 11C0.869565 10.2642 1.24909 9.58723 1.88487 9.18921C2.08074 9.06658 2.14478 8.81362 2.03039 8.61429C1.83713 8.27746 1.73913 7.92357 1.73913 7.5625C1.73913 6.40277 2.69574 5.28516 3.91304 5.28516C5.07113 5.28516 6.08696 6.34936 6.08696 7.5625C6.08696 7.79982 6.28161 7.99219 6.52174 7.99219C6.76187 7.99219 6.95652 7.79982 6.95652 7.5625C6.95652 5.86223 5.56278 4.42578 3.91304 4.42578C3.76748 4.42578 3.6227 4.43743 3.47935 4.45947L3.47883 4.44505C3.47854 4.43867 3.47826 4.43229 3.47826 4.42578C3.47826 3.46685 4.26596 2.70703 5.21739 2.70703C5.68183 2.70703 6.1187 2.88582 6.44748 3.21041C6.61735 3.37812 6.89261 3.37795 7.06235 3.21011C7.23204 3.04219 7.23191 2.77015 7.06204 2.60245C6.66539 2.21087 6.1637 1.96114 5.62 1.87838C6.00343 1.31587 6.64104 0.859375 7.3913 0.859375C8.54939 0.859375 9.56522 1.92354 9.56522 3.13672V6.50465ZM18.8114 13.4609C18.29 13.8831 17.6413 14.1367 16.9565 14.1367C16.7164 14.1367 16.5217 13.9443 16.5217 13.707C16.5217 13.4697 16.7164 13.2773 16.9565 13.2773C18.133 13.2773 19.1304 12.2173 19.1304 11C19.1304 10.2642 18.7509 9.58723 18.1152 9.18921C17.9193 9.06658 17.8553 8.81362 17.9696 8.61429C18.1629 8.27746 18.2609 7.92357 18.2609 7.5625C18.2609 6.40222 17.3036 5.28516 16.087 5.28516C14.9289 5.28516 13.913 6.34936 13.913 7.5625C13.913 7.79982 13.7183 7.99219 13.4783 7.99219C13.2382 7.99219 13.0435 7.79982 13.0435 7.5625C13.0435 5.86223 14.4372 4.42578 16.087 4.42578C16.2325 4.42578 16.3773 4.43743 16.5207 4.45947C16.5207 4.45462 16.521 4.44982 16.5212 4.44502C16.5215 4.43864 16.5217 4.43226 16.5217 4.42578C16.5217 3.47132 15.7388 2.70703 14.7826 2.70703C14.3182 2.70703 13.8813 2.88582 13.5524 3.21041C13.3826 3.37812 13.1073 3.37799 12.9376 3.21007C12.7679 3.04214 12.768 2.77011 12.938 2.6024C13.3347 2.21083 13.8363 1.96109 14.38 1.87834C13.9965 1.31588 13.359 0.859375 12.6087 0.859375C11.4506 0.859375 10.4348 1.92354 10.4348 3.13672V6.50465C10.6908 6.35791 10.9877 6.27344 11.3043 6.27344C11.5444 6.27344 11.7391 6.46581 11.7391 6.70312C11.7391 6.94044 11.5444 7.13281 11.3043 7.13281C10.8249 7.13281 10.4348 7.51833 10.4348 7.99219V16.1635C11.0727 15.4485 12.0053 14.9961 13.0435 14.9961C13.2836 14.9961 13.4783 15.1885 13.4783 15.4258C13.4783 15.6631 13.2836 15.8555 13.0435 15.8555C11.605 15.8555 10.4348 17.012 10.4348 18.4336C10.4348 19.9009 11.6294 21.1406 13.0435 21.1406C14.05 21.1406 14.9768 20.5523 15.4043 19.6419C15.4831 19.4741 15.6614 19.375 15.8478 19.3958C15.8785 19.3993 15.9091 19.4034 15.9397 19.4075C17.0402 19.5562 18.2609 18.4782 18.2609 17.1445C18.2609 16.9901 18.2394 16.83 18.1933 16.6409C18.1546 16.4818 18.2107 16.3148 18.338 16.2101C18.8416 15.7959 19.1304 15.1968 19.1304 14.5664C19.1304 14.1767 19.0189 13.7953 18.8114 13.4609Z" fill="#585858"/><path d="M7.89388 9.00221C7.74047 8.83071 7.47709 8.81604 7.30555 8.96946C5.96938 10.1647 3.83333 9.20946 3.83333 7.41667C3.83333 7.18654 3.64679 7 3.41667 7C3.18654 7 3 7.18654 3 7.41667C3 8.86312 4.05863 10.0665 5.44167 10.294C5.28125 10.7994 4.80775 11.1667 4.25 11.1667C4.01988 11.1667 3.83333 11.3532 3.83333 11.5833C3.83333 11.8135 4.01988 12 4.25 12C5.26488 12 6.11209 11.2704 6.29592 10.3082C6.87538 10.2325 7.42076 9.9845 7.86113 9.59054C8.03263 9.43712 8.0473 9.17371 7.89388 9.00221Z" fill="#585858"/><path d="M3.375 17C3.16789 17 3 17.2158 3 17.4819C3 17.7481 3.16789 17.9639 3.375 17.9639C4.37385 17.9639 5.25 19.1574 5.25 20.5181C5.25 20.7842 5.41789 21 5.625 21C5.83211 21 6 20.7842 6 20.5181C6 18.6111 4.7979 17 3.375 17Z" fill="#585858"/><path d="M7.55358 13C6.04085 13 4.74203 13.9209 4.05812 15.26C3.93656 15.4981 4.01187 15.8005 4.22633 15.9355C4.44083 16.0704 4.71324 15.9869 4.83484 15.7488C5.36765 14.7054 6.37861 13.9911 7.55358 13.9911C7.80014 13.9911 8 13.7692 8 13.4955C8 13.2218 7.80014 13 7.55358 13Z" fill="#585858"/><path d="M14.75 11.1667C14.1923 11.1667 13.7188 10.7994 13.5583 10.294C14.9414 10.0665 16 8.86312 16 7.41667C16 7.18654 15.8134 7 15.5833 7C15.3533 7 15.1667 7.18654 15.1667 7.41667C15.1667 8.56542 14.2321 9.5 13.0833 9.5C12.5702 9.5 12.077 9.31158 11.6945 8.96946C11.523 8.81604 11.2595 8.83067 11.1061 9.00221C10.9527 9.17371 10.9674 9.43712 11.1389 9.59054C11.5793 9.9845 12.1247 10.2325 12.7041 10.3082C12.8879 11.2704 13.7351 12 14.75 12C14.9801 12 15.1667 11.8135 15.1667 11.5833C15.1667 11.3532 14.9801 11.1667 14.75 11.1667Z" fill="#585858"/><path d="M15.625 17C14.2021 17 13 18.6111 13 20.5181C13 20.7842 13.1679 21 13.375 21C13.5821 21 13.75 20.7842 13.75 20.5181C13.75 19.1574 14.6262 17.9639 15.625 17.9639C15.8321 17.9639 16 17.7481 16 17.4819C16 17.2158 15.8321 17 15.625 17Z" fill="#585858"/><path d="M15.9419 15.26C15.2597 13.9242 13.9627 13 12.4464 13C12.1999 13 12 13.2218 12 13.4955C12 13.7692 12.1999 13.9911 12.4464 13.9911C13.6206 13.9911 14.6323 14.7052 15.1651 15.7487C15.2868 15.9871 15.5595 16.0703 15.7736 15.9355C15.9881 15.8006 16.0634 15.4981 15.9419 15.26Z" fill="#585858"/></svg>