<svg width="21" height="21" viewBox="0 0 21 21" xmlns="http://www.w3.org/2000/svg"><g id="Мобильный" stroke="none" stroke-width="1" fill="none" fill-rule="evenodd"><g id="Боковое-меню:-нажали-на-программы-питания" transform="translate(-232 -79)" fill="#5E5E5E" fill-rule="nonzero"><g id="homepage" transform="translate(232 79)"><path d="M20.9039342,10.2440784 L10.7505564,0.102739625 C10.6137492,-0.0342465417 10.3921539,-0.0342465417 10.2553124,0.102739625 L0.101591523,10.2440784 C-0.035249966,10.3810645 -0.0324705877,10.599734 0.101591523,10.739846 C0.170183835,10.810297 0.259775893,10.8467076 0.348681685,10.8474289 L0.348681685,10.8481503 L2.80005903,10.8481503 L2.80005903,20.6499777 C2.80005903,20.7459504 2.83924483,20.8331984 2.90258721,20.8962642 C2.96592958,20.9597079 3.05342853,21 3.1500205,21 L8.04996149,21 C8.24314544,21 8.39995728,20.8423354 8.39995728,20.650012 L8.39995728,13.6503555 L12.599941,13.6503555 L12.599941,20.6499777 C12.599941,20.8423354 12.7567185,20.9999657 12.9499368,20.9999657 L17.8498778,20.9999657 C18.0430617,20.9999657 18.1998736,20.842301 18.1998736,20.6499777 L18.1998736,10.8481503 L20.6669664,10.8481503 C20.7586859,10.8499021 20.8450868,10.8138007 20.9038998,10.7398804 C21.0229327,10.5871277 21.04081,10.3810645 20.9039342,10.2440784 Z M17.8499121,10.124954 L17.8499121,10.1498231 C17.801599,10.1498231 17.7554132,10.1596471 17.7137569,10.1767875 C17.5881015,10.2307507 17.4999163,10.3547871 17.4999163,10.4998454 L17.4999163,20.2995775 L13.2999669,20.2995775 L13.2999669,13.3006767 C13.2999669,13.106945 13.1431894,12.9503452 12.9500054,12.9503452 L8.04999581,12.9503452 C7.85681186,12.9503452 7.70000002,13.1069793 7.70000002,13.3006767 L7.70000002,20.2996118 L3.5000506,20.2996118 L3.5000506,10.4998798 C3.5000506,10.355165 3.41186539,10.2307851 3.28621004,10.1771654 C3.24458799,10.1599906 3.19836796,10.1502009 3.15005481,10.1502009 L3.15005481,10.1361863 L1.19989202,10.1372511 L10.5027457,0.844106837 L19.7920113,10.1232022 L17.8499121,10.124954 Z" id="Shape"/></g></g></g></svg>