<svg width="23" height="18" viewBox="0 0 23 18" fill="none" xmlns="http://www.w3.org/2000/svg"><path d="M15.0071 15.3681L15.0856 14.8743L14.9599 14.8543L14.8399 14.8969L15.0071 15.3681ZM19.3428 12.3729L18.948 12.0661L18.7378 12.3366L18.9141 12.6303L19.3428 12.3729ZM21.8726 17.039L21.5272 17.4005L21.8726 17.039ZM10.8593 16.5652C12.3968 16.5652 13.8587 16.3061 15.1743 15.8394L14.8399 14.8969C13.6338 15.3248 12.2851 15.5652 10.8593 15.5652V16.5652ZM0.5 8.53258C0.5 10.8013 1.70489 12.8204 3.58417 14.2562C5.46301 15.6917 8.03682 16.5652 10.8593 16.5652V15.5652C8.23664 15.5652 5.8808 14.7524 4.19127 13.4616C2.50219 12.1711 1.5 10.4239 1.5 8.53258H0.5ZM10.8593 0.5C8.03682 0.5 5.46301 1.37348 3.58417 2.80893C1.70489 4.24472 0.5 6.26381 0.5 8.53258H1.5C1.5 6.64121 2.50219 4.89402 4.19127 3.60355C5.8808 2.31274 8.23664 1.5 10.8593 1.5V0.5ZM21.2186 8.53258C21.2186 6.26381 20.0137 4.24472 18.1344 2.80893C16.2556 1.37348 13.6818 0.5 10.8593 0.5V1.5C13.482 1.5 15.8378 2.31274 17.5273 3.60355C19.2164 4.89402 20.2186 6.64121 20.2186 8.53258H21.2186ZM19.7376 12.6798C20.6713 11.4784 21.2186 10.0595 21.2186 8.53258H20.2186C20.2186 9.81109 19.7623 11.0184 18.948 12.0661L19.7376 12.6798ZM21.5272 17.4005C21.5524 17.4245 21.5823 17.4513 21.6156 17.4764C21.643 17.4971 21.7004 17.5381 21.7784 17.5662C21.8436 17.5897 22.0623 17.6513 22.27 17.4927C22.4589 17.3483 22.4712 17.1436 22.4728 17.0937C22.4769 16.9726 22.4386 16.8631 22.4254 16.8249C22.4044 16.7643 22.3767 16.698 22.3466 16.6312C22.2277 16.3673 22.0082 15.9564 21.7411 15.479C21.2019 14.5153 20.431 13.2142 19.7715 12.1156L18.9141 12.6303C19.5731 13.728 20.3373 15.018 20.8684 15.9673C21.1365 16.4464 21.336 16.8224 21.4348 17.0418C21.4591 17.0958 21.4732 17.1314 21.4802 17.1516C21.4949 17.1941 21.4706 17.1443 21.4734 17.0598C21.4745 17.0282 21.4823 16.836 21.6629 16.698C21.8621 16.5458 22.0684 16.6078 22.117 16.6253C22.1786 16.6474 22.2152 16.6762 22.2177 16.678C22.226 16.6843 22.2267 16.6857 22.218 16.6774L21.5272 17.4005ZM14.9286 15.8619C15.8601 16.01 17.4019 16.2693 18.7892 16.5686C19.4839 16.7185 20.1303 16.8764 20.6387 17.0331C20.8932 17.1115 21.1043 17.1869 21.2655 17.2575C21.4388 17.3333 21.5112 17.3852 21.5272 17.4005L22.218 16.6774C22.07 16.536 21.8633 16.4275 21.6663 16.3413C21.4573 16.2499 21.207 16.1618 20.9331 16.0774C20.3847 15.9084 19.7062 15.7435 19.0001 15.5911C17.5859 15.286 16.0229 15.0233 15.0856 14.8743L14.9286 15.8619Z" fill="#585858"/><path d="M10.2915 13.2236C10.2915 13.2236 18.5032 13.5231 16.4782 6.86328" stroke="#585858"/></svg>