<svg width="20" height="25" viewBox="0 0 20 25" fill="none" xmlns="http://www.w3.org/2000/svg"><path fill-rule="evenodd" clip-rule="evenodd" d="M9.99745 0C7.32875 0 5.15915 2.162 5.15915 4.82136V4.93808H1.96078C1.70104 4.93808 1.48205 5.13601 1.45658 5.39484L0 21.7722V21.8179C0 23.5739 1.62465 25 3.62618 25H16.3738C18.3754 25 20 23.5739 20 21.8179V21.7722L18.5383 5.39484C18.5129 5.13601 18.299 4.93808 18.0341 4.93808H14.8358V4.82136C14.8358 2.162 12.6662 0 9.99745 0ZM6.16756 4.82136C6.16756 2.71518 7.88388 1.00487 9.99745 1.00487C12.111 1.00487 13.8273 2.71518 13.8273 4.82136V4.93808H6.16756V4.82136ZM18.9865 21.8382L17.5707 5.94296H14.8358V8.26736C14.8358 8.54649 14.6117 8.76979 14.3316 8.76979C14.0514 8.76979 13.8273 8.54649 13.8273 8.26736V5.94296H6.16756V8.26736C6.16756 8.54649 5.94347 8.76979 5.66336 8.76979C5.38324 8.76979 5.15915 8.54649 5.15915 8.26736V5.94296H2.42424L1.0084 21.8382C1.02368 23.0309 2.18997 23.9951 3.62618 23.9951H16.3687C17.8049 23.9951 18.9712 23.0309 18.9865 21.8382Z" fill="#585858"/></svg>