<svg width="30" height="30" viewBox="0 0 30 30" xmlns="http://www.w3.org/2000/svg"><g id="Мобильный" stroke="none" stroke-width="1" fill="none" fill-rule="evenodd"><g id="homepage" transform="translate(-335 -2999)"><g id="иконка-стрелочка" transform="rotate(-180 182.5 1514.5)"><circle id="Oval-4" fill="#6A9812" opacity=".678" cx="15" cy="15" r="15"/><path d="M18.0806605,11.1203143 C17.9171801,10.9598952 17.6450937,10.9598952 17.4758971,11.1203143 C17.3124166,11.2753139 17.3124166,11.5332852 17.4758971,11.6879234 L20.5423944,14.5953392 L10.4233725,14.5953392 C10.1874881,14.5957005 10,14.7734622 10,14.9971096 C10,15.2207569 10.1874881,15.4042995 10.4233725,15.4042995 L20.5423944,15.4042995 L17.4758971,18.3062957 C17.3124166,18.4667148 17.3124166,18.7250474 17.4758971,18.8796857 C17.6450937,19.0401048 17.9175611,19.0401048 18.0806605,18.8796857 L21.8731026,15.2839852 C22.0422991,15.1289856 22.0422991,14.8710144 21.8731026,14.7163761 L18.0806605,11.1203143 Z" id="Shape" fill="#FFF" fill-rule="nonzero"/></g></g></g></svg>